<svg width='164' height='47' viewBox='0 0 164 47' fill="none" xmlns="http://www.w3.org/2000/svg">
<path
d="M19.2901 18.2782L23.0239 22.0166C21.8104 23.4317 20.299 24.5609 18.5979 25.3234C16.8968 26.0858 15.0482 26.4626 13.1844 26.4267C11.4445 26.4692 9.71427 26.1564 8.09946 25.5073C6.48465 24.8583 5.01921 23.8866 3.79276 22.6518C2.55268 21.4305 1.57655 19.9676 0.924863 18.3537C0.273171 16.7398 -0.0402121 15.0093 0.00412633 13.2693C-0.0300087 11.5287 0.287517 9.79904 0.937685 8.184C1.58785 6.56897 2.55729 5.10176 3.78793 3.87027C5.01857 2.63877 6.4851 1.66832 8.09969 1.01703C9.71427 0.365747 11.4437 0.0470229 13.1844 0.0799512C15.109 0.044178 17.0162 0.450337 18.7592 1.26719C20.5022 2.08403 22.0347 3.28981 23.2387 4.79175L19.4866 8.53469C18.7767 7.53042 17.8303 6.71651 16.7312 6.16493C15.632 5.61334 14.4138 5.34106 13.1844 5.37216C12.1387 5.3453 11.0985 5.531 10.1267 5.91801C9.15488 6.30502 8.27178 6.88529 7.53085 7.62365C6.78992 8.36201 6.2066 9.2431 5.81622 10.2135C5.42585 11.184 5.23654 12.2236 5.25977 13.2693C5.23654 14.3151 5.42585 15.3547 5.81622 16.3251C6.2066 17.2956 6.78992 18.1767 7.53085 18.915C8.27178 19.6534 9.15488 20.2336 10.1267 20.6207C11.0985 21.0077 12.1387 21.1934 13.1844 21.1665C14.3567 21.1936 15.5191 20.9466 16.5792 20.4452C17.6392 19.9437 18.5674 19.2017 19.2901 18.2782Z"
fill="#414042"
/>
<path
d="M52.6242 0.0795898V26.4264C52.6544 28.1636 52.3349 29.8892 51.6847 31.5005C51.0345 33.1117 50.0668 34.5758 48.8393 35.8054C47.6117 37.0351 46.1494 38.0053 44.5393 38.6583C42.9291 39.3114 41.2041 39.6338 39.4668 39.6066C36.8341 39.637 34.2543 38.8666 32.0694 37.3975C29.8845 35.9284 28.1977 33.83 27.2326 31.3804L32.2917 29.7397C33.6871 32.7865 36.0788 34.3098 39.4668 34.3098C40.511 34.3362 41.5498 34.1499 42.5198 33.7624C43.4899 33.3749 44.371 32.7941 45.1096 32.0555C45.8482 31.3168 46.429 30.4357 46.8165 29.4657C47.2041 28.4956 47.3903 27.4569 47.364 26.4127V23.8077C45.0926 25.5274 42.3157 26.4466 39.4668 26.4218C37.7284 26.4578 36.0006 26.1424 34.387 25.4945C32.7735 24.8466 31.3074 23.8795 30.0766 22.6513C28.8458 21.4231 27.8757 19.959 27.2244 18.3468C26.5732 16.7346 26.2542 15.0075 26.2865 13.269V0.0795898H31.5376V13.269C31.5144 14.3151 31.7038 15.3551 32.0945 16.3259C32.4851 17.2966 33.0688 18.1779 33.8103 18.9163C34.5517 19.6548 35.4353 20.2349 36.4077 20.6217C37.38 21.0084 38.4207 21.1936 39.4668 21.1662C40.511 21.1925 41.5498 21.0063 42.5198 20.6187C43.4899 20.2312 44.371 19.6504 45.1096 18.9118C45.8482 18.1732 46.429 17.292 46.8165 16.322C47.2041 15.352 47.3903 14.3132 47.364 13.269V0.0795898H52.6242Z"
fill="#414042"
/>
<path
d="M133.556 11.9621V26.4266H128.373V23.8079C125.819 25.6884 122.681 26.6035 119.516 26.391C116.352 26.1785 113.365 24.8521 111.085 22.6471C109.844 21.4258 108.868 19.9629 108.217 18.349C107.565 16.7351 107.252 15.0046 107.296 13.2646C107.268 9.86948 108.554 6.59508 110.885 4.12601C113.215 1.65694 116.41 0.184366 119.801 0.0161688C123.192 -0.152028 126.517 0.997173 129.08 3.2235C131.644 5.44983 133.247 8.58092 133.556 11.9621ZM114.818 7.63879C114.071 8.37255 113.482 9.25227 113.089 10.2232C112.696 11.1942 112.507 12.2357 112.533 13.2829C112.533 15.381 113.367 17.3932 114.85 18.8767C116.334 20.3603 118.346 21.1938 120.444 21.1938C122.542 21.1938 124.554 20.3603 126.038 18.8767C127.522 17.3932 128.355 15.381 128.355 13.2829C128.338 11.7201 127.864 10.1965 126.989 8.90078C126.115 7.6051 124.881 6.59428 123.438 5.9935C121.995 5.39272 120.407 5.22838 118.872 5.52082C117.337 5.81327 115.921 6.54966 114.8 7.63879H114.818Z"
fill="#414042"
/>
<path
d="M163.867 26.4264H157.14L150.088 17.5055L143.013 26.4264H136.286L146.706 13.269L136.286 0.0795898H143.013L150.088 9.03247L157.14 0.0795898H163.867L153.424 13.269L163.867 26.4264Z"
fill="#414042"
/>
<path
d="M77.554 26.4355H82.8325V12.6063C82.9249 10.7209 83.7207 8.93865 85.0627 7.6112C86.1697 6.48329 87.5889 5.71256 89.1377 5.39824C90.6865 5.08391 92.2939 5.24039 93.753 5.84752C95.212 6.45465 96.456 7.48463 97.3246 8.80485C98.1932 10.1251 98.6468 11.6751 98.6269 13.2553V26.4355H103.883V13.2553C103.883 10.4904 103.015 7.79521 101.4 5.55096C99.7846 3.30672 97.5049 1.62698 94.883 0.749295C92.2611 -0.128386 89.4296 -0.159589 86.7889 0.660099C84.1483 1.47979 81.8322 3.10888 80.1681 5.31699C78.5041 3.10888 76.188 1.47979 73.5473 0.660099C70.9067 -0.159589 68.0752 -0.128386 65.4532 0.749295C62.8313 1.62698 60.5517 3.30672 58.9367 5.55096C57.3217 7.79521 56.4531 10.4904 56.4537 13.2553V26.4355H61.7094V13.2553C61.72 11.6833 62.1936 10.1492 63.0711 8.84484C63.9486 7.54047 65.1911 6.52364 66.6432 5.92142C68.0954 5.31921 69.6928 5.15831 71.2359 5.45885C72.7789 5.75938 74.1992 6.50802 75.3192 7.6112C76.6613 8.93865 77.457 10.7209 77.5494 12.6063L77.554 26.4355Z"
fill="#414042"
/>
<path
d="M56.542 45.9868V33.5287H60.9659C61.6876 33.5158 62.4079 33.5957 63.1093 33.7663C63.6335 33.8916 64.1275 34.12 64.5626 34.4381C64.9232 34.7102 65.2055 35.0728 65.3806 35.4893C65.5555 35.9249 65.6425 36.3909 65.6365 36.8603C65.6375 37.1392 65.5959 37.4166 65.5132 37.6829C65.4273 37.9516 65.2959 38.2036 65.1247 38.4279C64.9343 38.677 64.7043 38.8932 64.4437 39.0677C64.1405 39.2703 63.8116 39.4317 63.4657 39.5475C65.1262 39.9375 65.9565 40.8515 65.9565 42.2896C65.9603 42.7949 65.8559 43.2951 65.6503 43.7566C65.4464 44.2096 65.1434 44.6109 64.7637 44.9311C64.3393 45.282 63.8502 45.5459 63.3241 45.7081C62.6893 45.9035 62.0276 45.9976 61.3635 45.9868H56.542ZM59.1195 38.8483H60.7876C61.1099 38.8513 61.4315 38.8206 61.7474 38.7569C62.0083 38.7123 62.2573 38.6142 62.4786 38.469C62.6674 38.3374 62.8173 38.1574 62.9127 37.948C63.0191 37.7031 63.0706 37.438 63.0636 37.1711C63.0703 36.9023 63.0285 36.6344 62.9402 36.3804C62.8645 36.1725 62.7314 35.9902 62.5563 35.8549C62.3617 35.713 62.1388 35.6148 61.9028 35.567C61.6023 35.5035 61.2958 35.4728 60.9887 35.4756H59.1607L59.1195 38.8483ZM59.1195 40.5987V44.008H61.3269C61.6729 44.0182 62.0179 43.9672 62.3461 43.8572C62.5862 43.7737 62.8047 43.6379 62.9859 43.4596C63.142 43.2992 63.2566 43.1031 63.3195 42.8883C63.3833 42.6716 63.4157 42.4469 63.4155 42.2211C63.4179 41.9906 63.3792 41.7616 63.3012 41.5447C63.2278 41.3454 63.1033 41.1688 62.9402 41.0328C62.7496 40.8794 62.5283 40.7687 62.2912 40.7083C61.97 40.6282 61.6396 40.5913 61.3086 40.5987H59.1195Z"
fill="#00AFDE"
/>
<path
d="M77.0912 43.9258C77.4763 43.9322 77.8587 43.8607 78.2155 43.7156C78.5406 43.5832 78.8313 43.3784 79.0655 43.1169C79.3009 42.851 79.4797 42.5401 79.5911 42.2029C79.7157 41.8021 79.7759 41.3841 79.7693 40.9644V33.5288H82.3469V40.9461C82.3548 41.6574 82.2308 42.364 81.9813 43.0301C81.7514 43.642 81.3965 44.1992 80.9393 44.6662C80.4702 45.1353 79.9083 45.5011 79.2895 45.7402C77.8741 46.2562 76.3221 46.2562 74.9067 45.7402C74.2861 45.5021 73.7224 45.1362 73.2523 44.6662C72.796 44.2019 72.4412 43.6479 72.2103 43.0392C71.9608 42.3731 71.8368 41.6665 71.8447 40.9553V33.5288H74.4223V40.9461C74.4157 41.3658 74.4759 41.7838 74.6005 42.1846C74.7119 42.5218 74.8907 42.8328 75.1261 43.0987C75.3577 43.359 75.6451 43.5637 75.967 43.6973C76.3226 43.8482 76.7049 43.9259 77.0912 43.9258Z"
fill="#00AFDE"
/>
<path
d="M95.5967 35.9139C95.5339 36.025 95.4501 36.1228 95.3499 36.2019C95.2543 36.2662 95.1406 36.2983 95.0254 36.2933C94.8803 36.2871 94.7396 36.2412 94.6187 36.1607C94.4724 36.0724 94.3018 35.9764 94.1068 35.8728C93.8903 35.7604 93.6658 35.6641 93.435 35.5849C93.1491 35.4909 92.8493 35.4461 92.5484 35.4524C92.0683 35.4151 91.5914 35.5568 91.2094 35.85C91.0609 35.979 90.9428 36.1394 90.8638 36.3196C90.7848 36.4998 90.7467 36.6953 90.7524 36.892C90.7444 37.1422 90.8328 37.3859 90.9991 37.5729C91.1835 37.7641 91.4021 37.9191 91.6435 38.0299C91.9381 38.172 92.2438 38.2897 92.5575 38.3818C92.8957 38.4854 93.2415 38.5981 93.595 38.72C93.9493 38.8434 94.2958 38.9884 94.6324 39.1542C94.9671 39.3152 95.2753 39.5264 95.5464 39.7803C95.8192 40.0397 96.0381 40.3503 96.1908 40.6943C96.3655 41.1138 96.4496 41.5654 96.4376 42.0196C96.4418 42.5654 96.3409 43.1069 96.1405 43.6146C95.9486 44.1018 95.6576 44.5438 95.2859 44.9125C94.8941 45.2951 94.4273 45.5923 93.9149 45.7854C93.32 46.0063 92.6893 46.1148 92.0548 46.1053C91.6588 46.1056 91.2638 46.0658 90.8757 45.9865C90.489 45.9085 90.1097 45.7968 89.7423 45.6529C89.3844 45.5128 89.0402 45.34 88.7141 45.1365C88.408 44.9468 88.1257 44.7213 87.8732 44.4647L88.6272 43.2444C88.6916 43.151 88.7759 43.0729 88.874 43.0159C88.9721 42.957 89.0841 42.9254 89.1985 42.9245C89.3749 42.934 89.5447 42.9943 89.6875 43.0982C89.8581 43.214 90.0562 43.3404 90.2816 43.4775C90.5286 43.6272 90.7886 43.7541 91.0585 43.8568C91.3982 43.9797 91.7577 44.0386 92.1188 44.0305C92.6174 44.0619 93.111 43.9162 93.5127 43.6192C93.6831 43.4653 93.8162 43.2746 93.9017 43.0616C93.9872 42.8485 94.023 42.6188 94.0063 42.3898C94.0181 42.1141 93.9305 41.8432 93.7595 41.6266C93.582 41.4215 93.3642 41.255 93.1197 41.1376C92.8267 40.9955 92.5206 40.8823 92.2056 40.7994C91.8675 40.705 91.5217 40.5999 91.1682 40.4841C90.8138 40.3699 90.4672 40.2325 90.1308 40.0728C89.7914 39.9161 89.482 39.7011 89.2168 39.4375C88.9417 39.1564 88.7243 38.8242 88.577 38.4595C88.3999 37.996 88.316 37.5022 88.3302 37.0062C88.3301 36.5362 88.4261 36.0712 88.6124 35.6397C88.7986 35.2083 89.0712 34.8195 89.4133 34.4972C89.7936 34.1425 90.239 33.8647 90.7249 33.6792C91.2939 33.4634 91.8988 33.3579 92.5073 33.3684C93.2169 33.3613 93.9223 33.4789 94.5913 33.7157C95.1904 33.924 95.7409 34.2521 96.2091 34.68L95.5967 35.9139Z"
fill="#00AFDE"
/>
<path
d="M104.961 45.987H102.374V33.5288H104.966L104.961 45.987Z"
fill="#00AFDE"
/>
<path
d="M113.261 33.5379C113.334 33.5452 113.405 33.5653 113.471 33.5973C113.536 33.6305 113.596 33.672 113.649 33.7207C113.717 33.7844 113.78 33.8532 113.837 33.9264L120.089 41.8693C120.064 41.6529 120.047 41.4412 120.038 41.234C120.029 41.0268 120.029 40.8318 120.038 40.649V33.5288H122.323V45.9915H120.993C120.819 45.9963 120.646 45.9619 120.486 45.891C120.329 45.8085 120.192 45.6932 120.084 45.5528L113.846 37.6556C113.864 37.8567 113.876 38.0532 113.882 38.2452C113.888 38.4371 113.888 38.6153 113.882 38.7799V45.9869H111.597V33.5288H112.968C113.066 33.5261 113.164 33.5291 113.261 33.5379Z"
fill="#00AFDE"
/>
<path
d="M136.898 33.5288V35.5442H131.556V38.7433H135.71V40.6948H131.556V43.9533H136.898V45.9733H128.965V33.5288H136.898Z"
fill="#00AFDE"
/>
<path
d="M149.624 35.9139C149.561 36.025 149.477 36.1228 149.377 36.2019C149.281 36.2662 149.167 36.2983 149.052 36.2933C148.907 36.2871 148.767 36.2412 148.646 36.1607C148.499 36.0724 148.329 35.9764 148.134 35.8728C147.917 35.7604 147.693 35.6641 147.462 35.5849C147.176 35.4909 146.876 35.4461 146.575 35.4524C146.095 35.4151 145.618 35.5568 145.236 35.85C145.088 35.979 144.97 36.1394 144.891 36.3196C144.812 36.4998 144.774 36.6953 144.779 36.892C144.771 37.1422 144.86 37.3859 145.026 37.5729C145.21 37.7641 145.429 37.9191 145.67 38.0299C145.965 38.172 146.271 38.2897 146.584 38.3818C146.923 38.4854 147.268 38.5981 147.622 38.72C147.976 38.8434 148.323 38.9884 148.659 39.1542C148.994 39.3152 149.302 39.5264 149.573 39.7803C149.846 40.0397 150.065 40.3503 150.218 40.6943C150.392 41.1138 150.476 41.5654 150.465 42.0196C150.469 42.5654 150.368 43.1069 150.167 43.6146C149.976 44.1018 149.685 44.5438 149.313 44.9125C148.921 45.2951 148.454 45.5923 147.942 45.7854C147.347 46.0063 146.716 46.1148 146.082 46.1053C145.686 46.1056 145.291 46.0658 144.903 45.9865C144.516 45.9085 144.137 45.7968 143.769 45.6529C143.411 45.5128 143.067 45.34 142.741 45.1365C142.435 44.9468 142.153 44.7213 141.9 44.4647L142.654 43.2444C142.719 43.151 142.803 43.0729 142.901 43.0159C142.999 42.957 143.111 42.9254 143.225 42.9245C143.402 42.934 143.572 42.9943 143.714 43.0982C143.885 43.214 144.083 43.3404 144.309 43.4775C144.556 43.6272 144.816 43.7541 145.085 43.8568C145.425 43.9797 145.785 44.0386 146.146 44.0305C146.644 44.0619 147.138 43.9162 147.54 43.6192C147.71 43.4653 147.843 43.2746 147.929 43.0616C148.014 42.8485 148.05 42.6188 148.033 42.3898C148.045 42.1141 147.957 41.8432 147.786 41.6266C147.609 41.4215 147.391 41.255 147.147 41.1376C146.854 40.9955 146.547 40.8823 146.233 40.7994C145.894 40.705 145.549 40.5999 145.195 40.4841C144.841 40.3699 144.494 40.2325 144.158 40.0728C143.818 39.9161 143.509 39.7011 143.244 39.4375C142.969 39.1564 142.751 38.8242 142.604 38.4595C142.427 37.996 142.343 37.5022 142.357 37.0062C142.357 36.5362 142.453 36.0712 142.639 35.6397C142.826 35.2083 143.098 34.8195 143.44 34.4972C143.821 34.1425 144.266 33.8647 144.752 33.6792C145.321 33.4634 145.926 33.3579 146.534 33.3684C147.244 33.3613 147.949 33.4789 148.618 33.7157C149.217 33.924 149.768 34.2521 150.236 34.68L149.624 35.9139Z"
fill="#00AFDE"
/>
<path
d="M163.158 35.9139C163.095 36.025 163.011 36.1228 162.911 36.2019C162.816 36.2662 162.702 36.2983 162.587 36.2933C162.442 36.2871 162.301 36.2412 162.18 36.1607C162.034 36.0724 161.863 35.9764 161.668 35.8728C161.452 35.7604 161.227 35.6641 160.996 35.5849C160.71 35.4909 160.411 35.4461 160.11 35.4524C159.63 35.4151 159.153 35.5568 158.771 35.85C158.622 35.979 158.504 36.1394 158.425 36.3196C158.346 36.4998 158.308 36.6953 158.314 36.892C158.306 37.1422 158.394 37.3859 158.56 37.5729C158.745 37.7641 158.963 37.9191 159.205 38.0299C159.499 38.172 159.805 38.2897 160.119 38.3818C160.457 38.4854 160.803 38.5981 161.156 38.72C161.511 38.8434 161.857 38.9884 162.194 39.1542C162.528 39.3152 162.837 39.5264 163.108 39.7803C163.38 40.0397 163.599 40.3503 163.752 40.6943C163.927 41.1138 164.011 41.5654 163.999 42.0196C164.003 42.5654 163.902 43.1069 163.702 43.6146C163.51 44.1018 163.219 44.5438 162.847 44.9125C162.455 45.2951 161.989 45.5923 161.476 45.7854C160.881 46.0063 160.251 46.1148 159.616 46.1053C159.22 46.1056 158.825 46.0658 158.437 45.9865C158.05 45.9085 157.671 45.7968 157.304 45.6529C156.946 45.5128 156.601 45.34 156.275 45.1365C155.969 44.9468 155.687 44.7213 155.434 44.4647L156.189 43.2444C156.253 43.151 156.337 43.0729 156.435 43.0159C156.533 42.957 156.645 42.9254 156.76 42.9245C156.936 42.934 157.106 42.9943 157.249 43.0982C157.419 43.214 157.617 43.3404 157.843 43.4775C158.09 43.6272 158.35 43.7541 158.62 43.8568C158.959 43.9797 159.319 44.0386 159.68 44.0305C160.179 44.0619 160.672 43.9162 161.074 43.6192C161.244 43.4653 161.377 43.2746 161.463 43.0616C161.549 42.8485 161.584 42.6188 161.568 42.3898C161.579 42.1141 161.492 41.8432 161.321 41.6266C161.143 41.4215 160.925 41.255 160.681 41.1376C160.388 40.9955 160.082 40.8823 159.767 40.7994C159.429 40.705 159.083 40.5999 158.73 40.4841C158.375 40.3699 158.028 40.2325 157.692 40.0728C157.353 39.9161 157.043 39.7011 156.778 39.4375C156.503 39.1564 156.286 38.8242 156.138 38.4595C155.961 37.996 155.877 37.5022 155.891 37.0062C155.891 36.5362 155.987 36.0712 156.174 35.6397C156.36 35.2083 156.632 34.8195 156.975 34.4972C157.355 34.1425 157.8 33.8647 158.286 33.6792C158.855 33.4634 159.46 33.3579 160.069 33.3684C160.778 33.3613 161.484 33.4789 162.153 33.7157C162.752 33.924 163.302 34.2521 163.77 34.68L163.158 35.9139Z"
fill="#00AFDE"
/>
</svg>