<svg width="79" height="80" viewBox="0 0 79 80" fill="none" xmlns="http://www.w3.org/2000/svg">
<g style="mix-blend-mode:multiply">
<rect y="0.5" width="79" height="79" fill="#828282"/>
</g>
<path d="M39.5003 59.5832C28.6845 59.5832 19.917 50.8157 19.917 39.9998C19.917 29.184 28.6845 20.4165 39.5003 20.4165C50.3162 20.4165 59.0837 29.184 59.0837 39.9998C59.0837 50.8157 50.3162 59.5832 39.5003 59.5832ZM39.5003 55.6665C43.6554 55.6665 47.6403 54.0159 50.5783 51.0778C53.5164 48.1398 55.167 44.1549 55.167 39.9998C55.167 35.8448 53.5164 31.8599 50.5783 28.9218C47.6403 25.9838 43.6554 24.3332 39.5003 24.3332C35.3453 24.3332 31.3604 25.9838 28.4223 28.9218C25.4842 31.8599 23.8337 35.8448 23.8337 39.9998C23.8337 44.1549 25.4842 48.1398 28.4223 51.0778C31.3604 54.0159 35.3453 55.6665 39.5003 55.6665V55.6665ZM36.8017 32.9792L46.3565 39.3477C46.4639 39.4192 46.552 39.5162 46.613 39.6299C46.6739 39.7437 46.7058 39.8708 46.7058 39.9998C46.7058 40.1289 46.6739 40.256 46.613 40.3697C46.552 40.4835 46.4639 40.5805 46.3565 40.652L36.7998 47.0205C36.6819 47.0986 36.5452 47.1433 36.4039 47.15C36.2627 47.1567 36.1223 47.125 35.9977 47.0584C35.873 46.9917 35.7687 46.8925 35.6958 46.7714C35.6229 46.6503 35.5842 46.5117 35.5837 46.3703V33.6294C35.5839 33.4877 35.6226 33.3487 35.6956 33.2273C35.7686 33.1059 35.8731 33.0065 35.9981 32.9398C36.1231 32.8731 36.2639 32.8415 36.4054 32.8484C36.5469 32.8554 36.6839 32.9006 36.8017 32.9792V32.9792Z" fill="white"/>
</svg>
